<mxfile host="app.diagrams.net" modified="2024-05-12T11:47:35.813Z" agent="Mozilla/5.0 (X11; Linux x86_64; rv:125.0) Gecko/20100101 Firefox/125.0" version="24.3.1" etag="BsTLPSREMIPa8b9AMLCc" type="github">
  <diagram name="Page-1" id="TR0bWK2gaIOVfAq4K6gr">
    <mxGraphModel>
      <root>
        <mxCell id="0" />
        <mxCell id="1" parent="0" />
      </root>
    </mxGraphModel>
  </diagram>
</mxfile>
